#!OML:ASF H:\Terrain\Patient Classification 1\Walking\steve\steve.ASF
:FULLY-SPECIFIED
:DEGREES
236
root 8.4588 16.2084 16.672 7.73799 -9.12653 -1.5148
lowerback 0.316063 4.99815 0.48181
upperback -2.63884 6.64142 -1.78693
thorax -2.62137 3.28666 -2.26015
lowerneck -11.2147 -2.01851 -2.97764
upperneck 10.0748 -3.07489 6.79237
head 5.01931 -1.17461 2.3674
rclavicle 3.06128e-014 -8.34896e-015
rhumerus -27.2856 6.63293 -86.222
rradius 74.7339
rwrist -21.1829
rhand -26.1834 -33.3862
rfingers 7.12502
rthumb 0.368609 -63.3656
lclavicle 3.06128e-014 -8.34896e-015
lhumerus -63.8768 19.705 53.2881
lradius 3.29169
lwrist -19.0734
lhand -22.4451 -7.66612
lfingers 7.12502
lthumb 3.97899 22.2765
rfemur -0.0524746 6.70702 21.2251
rtibia 50.327
rfoot 28.1721 -2.46705
rtoes -3.2974
lfemur -39.7656 2.9146 -21.632
ltibia 39.3986
lfoot -7.94334 0.980379
ltoes 4.63854
237
root 8.4681 16.2514 16.9355 7.57953 -9.52312 -1.26982
lowerback 0.367777 5.0138 0.244614
upperback -2.53798 6.65679 -1.84445
thorax -2.56566 3.29967 -2.18866
lowerneck -11.0149 -2.01738 -3.19824
upperneck 9.7415 -3.02501 6.81248
head 4.88358 -1.16645 2.41382
rclavicle -7.00716e-015 -3.97569e-015
rhumerus -28.4738 6.23898 -86.7009
rradius 74.0824
rwrist -20.714
rhand -31.9317 -29.9594
rfingers 7.12502
rthumb -5.1828 -59.876
lclavicle -7.00716e-015 -3.97569e-015
lhumerus -63.2529 20.5523 53.2792
lradius 3.56305
lwrist -20.5564
lhand -21.9907 -7.75554
lfingers 7.12502
lthumb 4.41777 22.1784
rfemur -2.06284 6.81711 20.8713
rtibia 53.7764
rfoot 29.0692 -3.79861
rtoes -7.33954
lfemur -38.5245 3.41126 -22.1889
ltibia 39.4153
lfoot -8.73827 0.669492
ltoes 4.0406
238
root 8.48743 16.2766 17.1963 7.2493 -9.43876 -0.732971
lowerback 0.552011 4.84272 -0.129689
upperback -2.40416 6.41843 -1.9344
thorax -2.57022 3.18749 -2.08124
lowerneck -11.1396 -1.86717 -3.28723
upperneck 9.80973 -2.80792 6.80218
head 4.91502 -1.06087 2.44158
rclavicle 3.35698e-014 2.26615e-014
rhumerus -29.6752 5.9405 -87.3096
rradius 73.1997
rwrist -20.8574
rhand -29.1395 -37.4953
rfingers 7.12502
rthumb -2.48641 -67.4605
lclavicle 3.35698e-014 2.26615e-014
lhumerus -62.7511 21.4891 53.315
lradius 4.14757
lwrist -22.0054
lhand -21.6561 -7.78512
lfingers 7.12502
lthumb 4.74084 22.1418
rfemur -3.75488 6.66418 20.2435
rtibia 57.1043
rfoot 27.9321 -8.13142
rtoes 1.11166
lfemur -37.042 3.45723 -23.0688
ltibia 39.1411
lfoot -9.29236 0.367035
ltoes 3.15532
239
root 8.49671 16.3024 17.4405 6.956 -9.61526 -0.266782
lowerback 1.02948 4.70796 -0.672766
upperback -2.49677 6.21589 -1.98151
thorax -2.99288 3.09348 -1.87912
lowerneck -11.1693 -1.66089 -3.17297
upperneck 10.2181 -2.55804 6.71336
head 5.03022 -0.933555 2.41593
rclavicle 6.63444e-014 -2.14687e-014
rhumerus -31.1194 5.71489 -88.0549
rradius 72.2512
rwrist -21.3267
rhand -27.1706 -38.8527
rfingers 7.12502
rthumb -0.584838 -68.8316
lclavicle 6.63444e-014 -2.14687e-014
lhumerus -62.3388 22.4516 53.1786
lradius 4.55061
lwrist -23.5148
lhand -21.1917 -7.87934
lfingers 7.12502
lthumb 5.18921 22.0371
rfemur -5.8033 7.06969 19.7127
rtibia 60.313
rfoot 25.5136 -10.923
rtoes 8.20765
lfemur -35.4709 3.57512 -23.7396
ltibia 38.5851
lfoot -10.0381 0.114036
ltoes 5.43395
240
root 8.50247 16.3462 17.6939 6.70196 -10.0153 0.520277
lowerback 1.28765 4.58726 -1.66127
upperback -2.64201 6.01313 -2.09398
thorax -3.38391 3.0122 -1.48037
lowerneck -11.2032 -1.51083 -2.79765
upperneck 10.7235 -2.39075 6.30714
head 5.17429 -0.856104 2.24207
rclavicle 2.69353e-014 -1.51076e-014
rhumerus -32.4868 5.50585 -88.8058
rradius 70.8843
rwrist -21.3343
rhand -25.888 -36.8367
rfingers 7.12502
rthumb 0.653959 -66.8155
lclavicle 2.69353e-014 -1.51076e-014
lhumerus -62.0658 23.4479 52.8712
lradius 4.94308
lwrist -25.0842
lhand -20.8401 -8.61085
lfingers 7.12502
lthumb 5.52874 21.297
rfemur -8.22452 7.15229 18.8022
rtibia 63.3613
rfoot 24.2007 -8.14889
rtoes 1.02258
lfemur -33.8224 3.69998 -24.6947
ltibia 37.8564
lfoot -10.9565 -0.102929
ltoes 8.89022
241
root 8.50996 16.3926 17.9583 6.28911 -10.3325 1.75635
lowerback 1.33301 4.45269 -3.04291
upperback -2.61254 5.78116 -2.30594
thorax -3.49944 2.92787 -0.935836
lowerneck -11.6423 -1.39533 -2.26923
upperneck 11.4336 -2.25748 5.59147
head 5.44858 -0.801465 1.94279
rclavicle -6.80092e-014 2.90226e-014
rhumerus -33.6183 5.0477 -89.3987
rradius 69.3057
rwrist -21.1301
rhand -25.0653 -37.3638
rfingers 7.12502
rthumb 1.44851 -67.3386
lclavicle -6.80092e-014 2.90226e-014
lhumerus -61.4408 24.5311 52.6974
lradius 5.26542
lwrist -26.577
lhand -20.3123 -9.34834
lfingers 7.12502
lthumb 6.03831 20.5456
rfemur -10.2858 6.71017 17.4438
rtibia 66.154
rfoot 22.462 -5.02467
rtoes -7.0166
lfemur -32.0633 3.71571 -26.1214
ltibia 37.112
lfoot -11.685 -0.240285
ltoes 8.32073
242
root 8.51623 16.4299 18.2097 6.16531 -10.5446 2.36964
lowerback 1.29401 4.36669 -3.73803
upperback -2.60666 5.64355 -2.37727
thorax -3.53244 2.87586 -0.619673
lowerneck -11.9686 -1.33984 -2.22695
upperneck 11.9258 -2.18492 5.41912
head 5.65212 -0.765331 1.88874
rclavicle -1.10325e-014 -3.69739e-014
rhumerus -34.8459 4.66737 -89.8299
rradius 68.055
rwrist -21.1409
rhand -25.1064 -39.7725
rfingers 7.12502
rthumb 1.40881 -69.7476
lclavicle -1.10325e-014 -3.69739e-014
lhumerus -60.4982 25.6246 52.793
lradius 5.67297
lwrist -28.0295
lhand -19.7465 -10.1811
lfingers 7.12502
lthumb 6.58456 19.6965
rfemur -12.3738 6.55029 16.8226
rtibia 68.5465
rfoot 20.3906 -4.81711
rtoes -6.67488
lfemur -30.6859 3.792 -26.8821
ltibia 36.4532
lfoot -12.2086 -0.382739
ltoes 6.92038
243
root 8.52595 16.4548 18.4529 6.25735 -10.3488 2.41028
lowerback 1.14951 4.16734 -3.71242
upperback -2.63329 5.38764 -2.29676
thorax -3.47846 2.74898 -0.527768
lowerneck -11.8019 -1.32676 -2.66983
upperneck 12.0048 -2.15293 5.83019
head 5.65618 -0.741449 2.09504
rclavicle 1.83752e-014 -2.8625e-014
rhumerus -35.9787 4.35793 -90.08
rradius 66.3063
rwrist -20.9234
rhand -26.7335 -39.7803
rfingers 7.12502
rthumb -0.1627 -69.76
lclavicle 1.83752e-014 -2.8625e-014
lhumerus -59.7447 26.6952 52.947
lradius 6.54023
lwrist -29.552
lhand -19.2065 -10.931
lfingers 7.12502
lthumb 7.10583 18.9297
rfemur -14.418 6.25273 16.8893
rtibia 70.5473
rfoot 17.8166 -5.15063
rtoes -3.28982
lfemur -29.4705 3.62807 -27.0833
ltibia 35.9097
lfoot -12.9379 -0.555338
ltoes 5.82245
244
root 8.53504 16.4834 18.6957 6.25813 -9.91625 2.39248
lowerback 1.16261 3.89019 -3.54996
upperback -2.66748 5.02194 -2.25617
thorax -3.50221 2.56378 -0.560023
lowerneck -11.7411 -1.21911 -2.75362
upperneck 12.2568 -2.04161 6.08353
head 5.72327 -0.670284 2.20013
rclavicle -6.2232e-014 2.78299e-015
rhumerus -36.85 3.43587 -90.2409
rradius 63.8578
rwrist -19.9411
rhand -25.431 -37.6651
rfingers 7.12502
rthumb 1.09529 -67.642
lclavicle -6.2232e-014 2.78299e-015
lhumerus -58.9188 27.6594 52.9652
lradius 7.37615
lwrist -30.9341
lhand -18.69 -11.4689
lfingers 7.12502
lthumb 7.60441 18.3744
rfemur -16.4125 6.41728 16.9161
rtibia 72.1089
rfoot 14.2101 -6.80385
rtoes 10.0795
lfemur -28.0944 3.32118 -27.2211
ltibia 35.3095
lfoot -13.7761 -0.689664
ltoes 3.82683
245
root 8.54128 16.5183 18.9389 6.19743 -9.67543 2.41596
lowerback 1.25439 3.717 -3.46137
upperback -2.68542 4.78723 -2.28238
thorax -3.55806 2.44462 -0.63174
lowerneck -11.7638 -1.05952 -2.5876
upperneck 12.608 -1.8835 6.16525
head 5.82948 -0.574374 2.21455
rclavicle 8.62228e-015 7.55382e-015
rhumerus -37.8806 2.30677 -90.4399
rradius 61.9818
rwrist -19.2394
rhand -24.2242 -36.4541
rfingers 7.12502
rthumb 2.2608 -66.4218
lclavicle 8.62228e-015 7.55382e-015
lhumerus -57.7192 28.547 53.0558
lradius 7.94869
lwrist -32.1053
lhand -18.4974 -12.3128
lfingers 7.12502
lthumb 7.79027 17.5237
rfemur -18.2856 6.13849 17.034
rtibia 73.4957
rfoot 11.6533 -5.5276
rtoes 9.43442
lfemur -26.6534 3.16888 -27.3714
ltibia 34.5893
lfoot -14.2995 -0.771641
ltoes 2.15124
246
root 8.55194 16.564 19.1952 6.03974 -9.43471 2.86239
lowerback 1.16106 3.58654 -3.70852
upperback -2.63844 4.6087 -2.39157
thorax -3.46492 2.35945 -0.590127
lowerneck -11.4284 -0.974233 -2.53039
upperneck 12.6386 -1.76587 6.04916
head 5.77461 -0.528264 2.17841
rclavicle -3.97569e-014 5.96354e-015
rhumerus -39.2874 1.67838 -90.6342
rradius 60.894
rwrist -19.716
rhand -24.8547 -35.0493
rfingers 7.12502
rthumb 1.65187 -65.0226
lclavicle -3.97569e-014 5.96354e-015
lhumerus -56.3864 29.4291 53.4201
lradius 8.51238
lwrist -33.3371
lhand -18.3867 -13.1685
lfingers 7.12502
lthumb 7.89715 16.6639
rfemur -20.2443 5.16929 16.7949
rtibia 74.7389
rfoot 10.1215 -2.07157
rtoes -7.04521
lfemur -25.0411 3.03846 -27.9965
ltibia 33.7988
lfoot -14.6643 -0.844034
ltoes 1.07876
